<svg xmlns="http://www.w3.org/2000/svg" viewBox="0 0 122.88 101.91"><path stroke-width=".4" stroke="#ff4655" fill="none" d="M3.34 0h116.2c1.84 0 3.34 1.5 3.34 3.34v76.98c0 1.84-1.5 3.34-3.34 3.34H3.34C1.5 83.66 0 82.16 0 80.32V3.34C0 1.5 1.5 0 3.34 0h0zm9.23 11.68h9.82v2.56h-9.82v-2.56h0zm14.5 27.12h-14.5v-2.57h14.5v2.57h0zm19.73.01H30.02v-2.58H46.8v2.58h0zm28.86 0H49.64v-2.57h26.03v2.57h-.01zM37.25 28.07H88.4v2.53H37.25v-2.53h0zm-12.03-.02h9.26v2.56h-9.26v-2.56h0zm-12.65 0h9.82v2.56h-9.82v-2.56h0zm22.2-5.64h-22.2v-2.54h22.21v2.54h-.01zm12.03.01h-9.26v-2.56h9.26v2.56h0zm28.86.01H49.64v-2.57h26.03v2.57h-.01zM37.25 11.68h22.21v2.54H37.25v-2.54h0zm-12.03 0h9.26v2.56h-9.26v-2.56h0zm65.98 50.4l-9.1-5.1v-2.92l9.1-5.1v3.36l-6.34 3.16 6.34 3.26v3.34h0zm1.69 2.27l3.29-17.91h1.91l-3.31 17.91h-1.89 0zm6.59-2.25v-3.34l6.35-3.2-6.35-3.24V49l9.1 5.14v2.88l-9.1 5.08h0zM46.29 88.27h30.3c.08 5.24 2.24 9.93 8.09 13.63H38.2c4.68-3.39 8.11-7.51 8.09-13.63h0zm15.15-15.86a4.29 4.29 0 014.29 4.29 4.29 4.29 0 01-4.29 4.29 4.29 4.29 0 01-4.29-4.29 4.29 4.29 0 014.29-4.29h0zM10.05 6.29h102.79c1.63 0 2.95 1.33 2.95 2.95v57.52c0 1.62-1.33 2.95-2.95 2.95H10.05c-1.62 0-2.95-1.33-2.95-2.95V9.24c-.01-1.62 1.32-2.95 2.95-2.95h0z"/></svg>