<svg width="267.046" height="154.164" xmlns="http://www.w3.org/2000/svg"><path stroke-width=".1" stroke="#ff4655" fill="none" d="M193.91 115.775c-6.025 0-10.926-4.905-10.926-10.93s4.901-10.926 10.926-10.926c6.026 0 10.927 4.9 10.927 10.926s-4.901 10.93-10.927 10.93m-120.774 0c-6.025 0-10.926-4.905-10.926-10.93s4.9-10.926 10.926-10.926c6.025 0 10.926 4.9 10.926 10.926s-4.9 10.93-10.926 10.93m124.693-65.82l21.838-37.822a4.548 4.548 0 00-1.663-6.206 4.549 4.549 0 00-6.206 1.663l-22.111 38.3c-16.91-7.716-35.9-12.015-56.164-12.015-20.264 0-39.254 4.299-56.163 12.015L55.248 7.59a4.549 4.549 0 00-6.206-1.663 4.545 4.545 0 00-1.663 6.206l21.838 37.822C31.718 70.35 6.071 108.313 2.319 153.164h262.408c-3.755-44.85-29.402-82.814-66.898-103.21"/></svg>