<svg xmlns="http://www.w3.org/2000/svg" viewBox="0 0 122.88 95.23"><path stroke-width=".1" stroke="#ff4655" fill="none" d="M.06 64.15c-.04-.9-.06-1.8-.06-2.71 0-4.24.41-8.33 1.22-12.35.77-3.94 1.95-7.74 3.54-11.46 0-.04.04-.11.07-.15 1.58-3.72 3.5-7.19 5.68-10.47 2.17-3.28 4.68-6.3 7.45-9.07a56.31 56.31 0 019.07-7.44c3.28-2.21 6.78-4.09 10.47-5.68 3.76-1.62 7.63-2.8 11.61-3.61C53.07.41 57.2 0 61.44 0s8.33.41 12.35 1.22c3.94.77 7.74 1.95 11.46 3.54.04 0 .11.04.15.07 3.69 1.58 7.19 3.5 10.47 5.68 3.28 2.17 6.3 4.68 9.07 7.44 2.8 2.76 5.27 5.79 7.45 9.07 2.21 3.28 4.09 6.78 5.68 10.47 1.62 3.76 2.8 7.63 3.61 11.61.81 3.98 1.22 8.11 1.22 12.35 0 .91-.02 1.81-.06 2.71-40.82-.01-81.88-.01-122.78-.01h0zm82.35 6.79h7.04l3.71 15.25 4.71-15.25h7.9l4.87 15.27 3.71-15.27h8.48l-8.47 24.29h-7.84l-4.66-14.62-4.51 14.62h-7.89l-7.79-22.17-7.73 22.17H66.1l-4.66-14.62-4.51 14.62h-7.89l-7.79-22.17-7.73 22.17h-7.84l-4.66-14.62-4.51 14.62H8.63L.09 70.94h8.53l3.71 15.25 4.7-15.25h7.9l4.87 15.27 3.71-15.27h15.52l3.71 15.25 4.71-15.25h7.9l4.87 15.27 3.71-15.27h8.48zM5.45 58.75h16.99c.63-8.4 3.43-16.84 8.4-25.36H12.86a59.247 59.247 0 00-3.1 6.23c-.04.04-.04.07-.07.11-1.4 3.35-2.51 6.82-3.21 10.43-.55 2.8-.91 5.64-1.03 8.59h0zm10.91-30.74h17.95c5.12-7.37 11.87-14.78 20.27-22.22-1.51.18-2.99.41-4.42.7-3.65.74-7.15 1.81-10.54 3.28a59.911 59.911 0 00-9.62 5.2 54.18 54.18 0 00-8.26 6.78c-1.95 1.95-3.76 4.02-5.38 6.23v.03h0zM68.3 5.79c8.44 7.45 15.18 14.85 20.27 22.22h17.95c-1.62-2.21-3.43-4.28-5.38-6.23A53.699 53.699 0 0092.88 15c-2.95-1.99-6.16-3.72-9.62-5.2-.04-.04-.07-.04-.11-.07-3.35-1.4-6.82-2.51-10.43-3.21-1.47-.3-2.95-.52-4.42-.7v-.03h0zm41.72 27.6H92.03c4.98 8.51 7.78 16.95 8.4 25.36h16.99c-.15-2.95-.48-5.79-1.03-8.59-.74-3.65-1.81-7.15-3.28-10.54a58.23 58.23 0 00-3.09-6.23h0zM64.13 9.29v18.72h17.84c-4.68-6.19-10.62-12.42-17.84-18.72h0zm0 24.1v25.36h30.92c-.7-8.33-3.8-16.77-9.32-25.36h-21.6 0zm-5.38 25.36V33.39h-21.6c-5.53 8.59-8.62 17.03-9.32 25.36h30.92zm0-30.74V9.29c-7.22 6.3-13.16 12.53-17.84 18.72h17.84z"/></svg>